<svg xmlns="http://www.w3.org/2000/svg" xmlns:xlink="http://www.w3.org/1999/xlink" width="2000" zoomAndPan="magnify" viewBox="0 0 1500 599.999999" height="800" preserveAspectRatio="xMidYMid meet" version="1.0"><defs><clipPath id="id1"><path d="M 976 109.777344 L 1247.71875 109.777344 L 1247.71875 490.027344 L 976 490.027344 Z M 976 109.777344 " clip-rule="nonzero"/></clipPath></defs><path fill="#ef5f36" d="M 1192.488281 253.652344 C 1192.488281 255.808594 1192.433594 257.964844 1192.328125 260.117188 C 1192.222656 262.269531 1192.066406 264.421875 1191.855469 266.566406 C 1191.644531 268.710938 1191.378906 270.851562 1191.0625 272.984375 C 1190.746094 275.117188 1190.378906 277.242188 1189.957031 279.355469 C 1189.539062 281.472656 1189.066406 283.574219 1188.542969 285.667969 C 1188.019531 287.757812 1187.445312 289.835938 1186.816406 291.898438 C 1186.191406 293.964844 1185.515625 296.011719 1184.789062 298.039062 C 1184.0625 300.070312 1183.289062 302.082031 1182.464844 304.074219 C 1181.640625 306.066406 1180.765625 308.039062 1179.84375 309.988281 C 1178.921875 311.9375 1177.953125 313.863281 1176.9375 315.761719 C 1175.921875 317.664062 1174.859375 319.539062 1173.753906 321.390625 C 1172.644531 323.238281 1171.492188 325.0625 1170.296875 326.855469 C 1169.097656 328.648438 1167.855469 330.410156 1166.574219 332.140625 C 1165.289062 333.875 1163.964844 335.574219 1162.597656 337.238281 C 1161.230469 338.90625 1159.824219 340.539062 1158.375 342.136719 C 1156.929688 343.734375 1155.441406 345.296875 1153.917969 346.820312 C 1152.394531 348.34375 1150.835938 349.832031 1149.238281 351.28125 C 1147.640625 352.726562 1146.007812 354.136719 1144.34375 355.503906 C 1142.675781 356.871094 1140.980469 358.199219 1139.246094 359.484375 C 1137.515625 360.765625 1135.753906 362.007812 1133.964844 363.207031 C 1132.171875 364.40625 1130.351562 365.558594 1128.503906 366.667969 C 1126.65625 367.773438 1124.78125 368.835938 1122.878906 369.855469 C 1120.976562 370.871094 1119.054688 371.839844 1117.105469 372.761719 C 1115.15625 373.683594 1113.1875 374.558594 1111.195312 375.382812 C 1109.207031 376.207031 1107.195312 376.984375 1105.167969 377.710938 C 1103.136719 378.4375 1101.089844 379.113281 1099.03125 379.738281 C 1096.96875 380.363281 1094.890625 380.941406 1092.800781 381.464844 C 1090.710938 381.988281 1088.605469 382.460938 1086.492188 382.878906 C 1084.378906 383.300781 1082.257812 383.667969 1080.125 383.984375 C 1077.992188 384.300781 1075.855469 384.566406 1073.710938 384.777344 C 1071.566406 384.988281 1069.417969 385.148438 1067.265625 385.253906 C 1065.113281 385.359375 1062.957031 385.414062 1060.804688 385.414062 C 1058.648438 385.414062 1056.496094 385.359375 1054.339844 385.253906 C 1052.1875 385.148438 1050.039062 384.988281 1047.894531 384.777344 C 1045.75 384.566406 1043.613281 384.300781 1041.480469 383.984375 C 1039.347656 383.667969 1037.226562 383.300781 1035.113281 382.878906 C 1033 382.460938 1030.898438 381.988281 1028.804688 381.464844 C 1026.714844 380.941406 1024.640625 380.363281 1022.578125 379.738281 C 1020.515625 379.113281 1018.46875 378.4375 1016.441406 377.710938 C 1014.410156 376.984375 1012.402344 376.207031 1010.410156 375.382812 C 1008.417969 374.558594 1006.449219 373.683594 1004.5 372.761719 C 1002.550781 371.839844 1000.628906 370.871094 998.726562 369.855469 C 996.828125 368.835938 994.953125 367.773438 993.101562 366.667969 C 991.253906 365.558594 989.433594 364.40625 987.644531 363.207031 C 985.851562 362.007812 984.089844 360.765625 982.359375 359.484375 C 980.628906 358.199219 978.929688 356.871094 977.261719 355.503906 C 975.597656 354.136719 973.964844 352.726562 972.367188 351.28125 C 970.773438 349.832031 969.210938 348.34375 967.6875 346.820312 C 966.164062 345.296875 964.679688 343.734375 963.230469 342.136719 C 961.785156 340.539062 960.375 338.90625 959.007812 337.238281 C 957.640625 335.574219 956.316406 333.875 955.03125 332.140625 C 953.75 330.410156 952.507812 328.648438 951.3125 326.855469 C 950.113281 325.0625 948.960938 323.238281 947.851562 321.390625 C 946.746094 319.539062 945.683594 317.664062 944.667969 315.761719 C 943.652344 313.863281 942.683594 311.9375 941.761719 309.988281 C 940.839844 308.039062 939.964844 306.066406 939.140625 304.074219 C 938.316406 302.082031 937.542969 300.070312 936.816406 298.039062 C 936.089844 296.011719 935.414062 293.964844 934.789062 291.898438 C 934.164062 289.835938 933.589844 287.757812 933.066406 285.667969 C 932.539062 283.574219 932.070312 281.472656 931.648438 279.355469 C 931.226562 277.242188 930.859375 275.117188 930.542969 272.984375 C 930.226562 270.851562 929.964844 268.710938 929.753906 266.566406 C 929.539062 264.421875 929.382812 262.269531 929.277344 260.117188 C 929.171875 257.964844 929.117188 255.808594 929.117188 253.652344 C 929.117188 251.496094 929.171875 249.339844 929.277344 247.1875 C 929.382812 245.03125 929.539062 242.882812 929.753906 240.738281 C 929.964844 238.589844 930.226562 236.453125 930.542969 234.320312 C 930.859375 232.183594 931.226562 230.0625 931.648438 227.945312 C 932.070312 225.832031 932.539062 223.726562 933.066406 221.636719 C 933.589844 219.542969 934.164062 217.46875 934.789062 215.402344 C 935.414062 213.339844 936.089844 211.292969 936.816406 209.261719 C 937.542969 207.234375 938.316406 205.222656 939.140625 203.230469 C 939.964844 201.238281 940.839844 199.265625 941.761719 197.316406 C 942.683594 195.367188 943.652344 193.441406 944.667969 191.539062 C 945.683594 189.636719 946.746094 187.761719 947.851562 185.914062 C 948.960938 184.0625 950.113281 182.242188 951.3125 180.449219 C 952.507812 178.65625 953.75 176.894531 955.03125 175.160156 C 956.316406 173.429688 957.640625 171.730469 959.007812 170.0625 C 960.375 168.398438 961.785156 166.765625 963.230469 165.167969 C 964.679688 163.570312 966.164062 162.007812 967.6875 160.484375 C 969.210938 158.957031 970.773438 157.472656 972.367188 156.023438 C 973.964844 154.574219 975.597656 153.167969 977.261719 151.800781 C 978.929688 150.429688 980.628906 149.105469 982.359375 147.820312 C 984.089844 146.535156 985.851562 145.292969 987.644531 144.097656 C 989.433594 142.898438 991.253906 141.746094 993.101562 140.636719 C 994.953125 139.527344 996.828125 138.464844 998.726562 137.449219 C 1000.628906 136.433594 1002.550781 135.464844 1004.5 134.542969 C 1006.449219 133.621094 1008.417969 132.746094 1010.410156 131.921875 C 1012.402344 131.09375 1014.410156 130.320312 1016.441406 129.59375 C 1018.46875 128.867188 1020.515625 128.191406 1022.578125 127.566406 C 1024.640625 126.9375 1026.714844 126.363281 1028.804688 125.839844 C 1030.898438 125.316406 1033 124.84375 1035.113281 124.421875 C 1037.226562 124.003906 1039.347656 123.632812 1041.480469 123.316406 C 1043.613281 123 1045.75 122.738281 1047.894531 122.527344 C 1050.039062 122.3125 1052.1875 122.15625 1054.339844 122.050781 C 1056.496094 121.945312 1058.648438 121.890625 1060.804688 121.890625 C 1062.957031 121.890625 1065.113281 121.945312 1067.265625 122.050781 C 1069.417969 122.15625 1071.566406 122.3125 1073.710938 122.527344 C 1075.855469 122.738281 1077.992188 123 1080.125 123.316406 C 1082.257812 123.632812 1084.378906 124.003906 1086.492188 124.421875 C 1088.605469 124.84375 1090.710938 125.316406 1092.800781 125.839844 C 1094.890625 126.363281 1096.96875 126.9375 1099.03125 127.566406 C 1101.089844 128.191406 1103.136719 128.867188 1105.167969 129.59375 C 1107.195312 130.320312 1109.207031 131.09375 1111.195312 131.921875 C 1113.1875 132.746094 1115.15625 133.621094 1117.105469 134.542969 C 1119.054688 135.464844 1120.976562 136.433594 1122.878906 137.449219 C 1124.78125 138.464844 1126.65625 139.527344 1128.503906 140.636719 C 1130.351562 141.746094 1132.171875 142.898438 1133.964844 144.097656 C 1135.753906 145.292969 1137.515625 146.535156 1139.246094 147.820312 C 1140.980469 149.105469 1142.675781 150.429688 1144.34375 151.800781 C 1146.007812 153.167969 1147.640625 154.574219 1149.238281 156.023438 C 1150.835938 157.472656 1152.394531 158.957031 1153.917969 160.484375 C 1155.441406 162.007812 1156.929688 163.570312 1158.375 165.167969 C 1159.824219 166.765625 1161.230469 168.398438 1162.597656 170.0625 C 1163.964844 171.730469 1165.289062 173.429688 1166.574219 175.160156 C 1167.855469 176.894531 1169.097656 178.65625 1170.296875 180.449219 C 1171.492188 182.242188 1172.644531 184.0625 1173.753906 185.914062 C 1174.859375 187.761719 1175.921875 189.636719 1176.9375 191.539062 C 1177.953125 193.441406 1178.921875 195.367188 1179.84375 197.316406 C 1180.765625 199.265625 1181.640625 201.238281 1182.464844 203.230469 C 1183.289062 205.222656 1184.0625 207.234375 1184.789062 209.261719 C 1185.515625 211.292969 1186.191406 213.339844 1186.816406 215.402344 C 1187.445312 217.46875 1188.019531 219.542969 1188.542969 221.636719 C 1189.066406 223.726562 1189.539062 225.832031 1189.957031 227.945312 C 1190.378906 230.0625 1190.746094 232.183594 1191.0625 234.320312 C 1191.378906 236.453125 1191.644531 238.589844 1191.855469 240.738281 C 1192.066406 242.882812 1192.222656 245.03125 1192.328125 247.1875 C 1192.433594 249.339844 1192.488281 251.496094 1192.488281 253.652344 Z M 1192.488281 253.652344 " fill-opacity="1" fill-rule="nonzero"/><path fill="#46cbd6" d="M 1228.5 262.703125 L 1228.5 287.023438 L 998.03125 287.023438 C 988.046875 287.023438 979.953125 278.925781 979.953125 268.941406 C 979.953125 263.949219 981.976562 259.421875 985.25 256.152344 C 988.519531 252.875 993.042969 250.851562 998.03125 250.851562 L 1216.65625 250.851562 C 1223.195312 250.851562 1228.5 256.15625 1228.5 262.703125 Z M 1228.5 262.703125 " fill-opacity="1" fill-rule="nonzero"/><path fill="#ffffff" d="M 1057.933594 312.558594 C 1029.644531 312.558594 1006.707031 289.609375 1006.707031 261.308594 C 1006.707031 233.003906 1029.644531 210.054688 1057.933594 210.054688 C 1086.21875 210.054688 1109.15625 233.003906 1109.15625 261.308594 C 1109.15625 289.609375 1086.21875 312.558594 1057.933594 312.558594 Z M 1057.933594 312.558594 " fill-opacity="1" fill-rule="nonzero"/><path fill="#f4c551" d="M 1094.226562 261.308594 C 1094.226562 262.496094 1094.167969 263.683594 1094.050781 264.867188 C 1093.933594 266.050781 1093.761719 267.226562 1093.527344 268.390625 C 1093.296875 269.558594 1093.007812 270.710938 1092.664062 271.847656 C 1092.316406 272.988281 1091.917969 274.105469 1091.464844 275.203125 C 1091.007812 276.304688 1090.5 277.375 1089.941406 278.425781 C 1089.378906 279.472656 1088.769531 280.492188 1088.109375 281.480469 C 1087.449219 282.472656 1086.742188 283.425781 1085.988281 284.34375 C 1085.234375 285.265625 1084.4375 286.144531 1083.597656 286.984375 C 1082.753906 287.828125 1081.875 288.625 1080.957031 289.378906 C 1080.039062 290.132812 1079.085938 290.839844 1078.097656 291.5 C 1077.109375 292.160156 1076.089844 292.773438 1075.042969 293.332031 C 1073.992188 293.894531 1072.917969 294.402344 1071.820312 294.855469 C 1070.722656 295.3125 1069.605469 295.710938 1068.46875 296.058594 C 1067.332031 296.402344 1066.179688 296.691406 1065.011719 296.921875 C 1063.847656 297.15625 1062.671875 297.328125 1061.488281 297.445312 C 1060.308594 297.5625 1059.121094 297.621094 1057.933594 297.621094 C 1056.746094 297.621094 1055.558594 297.5625 1054.375 297.445312 C 1053.191406 297.328125 1052.019531 297.15625 1050.851562 296.921875 C 1049.6875 296.691406 1048.535156 296.402344 1047.398438 296.058594 C 1046.261719 295.710938 1045.140625 295.3125 1044.042969 294.855469 C 1042.945312 294.402344 1041.871094 293.894531 1040.824219 293.332031 C 1039.777344 292.773438 1038.757812 292.160156 1037.769531 291.5 C 1036.78125 290.839844 1035.828125 290.132812 1034.910156 289.378906 C 1033.988281 288.625 1033.109375 287.828125 1032.269531 286.984375 C 1031.429688 286.144531 1030.632812 285.265625 1029.878906 284.34375 C 1029.125 283.425781 1028.417969 282.472656 1027.757812 281.480469 C 1027.09375 280.492188 1026.484375 279.472656 1025.925781 278.425781 C 1025.363281 277.375 1024.855469 276.304688 1024.402344 275.203125 C 1023.945312 274.105469 1023.546875 272.988281 1023.203125 271.847656 C 1022.855469 270.710938 1022.570312 269.558594 1022.335938 268.390625 C 1022.105469 267.226562 1021.929688 266.050781 1021.8125 264.867188 C 1021.699219 263.683594 1021.640625 262.496094 1021.640625 261.308594 C 1021.640625 260.117188 1021.699219 258.929688 1021.8125 257.746094 C 1021.929688 256.5625 1022.105469 255.390625 1022.335938 254.222656 C 1022.570312 253.054688 1022.855469 251.902344 1023.203125 250.765625 C 1023.546875 249.628906 1023.945312 248.507812 1024.402344 247.410156 C 1024.855469 246.3125 1025.363281 245.238281 1025.925781 244.1875 C 1026.484375 243.140625 1027.09375 242.121094 1027.757812 241.132812 C 1028.417969 240.144531 1029.125 239.1875 1029.878906 238.269531 C 1030.632812 237.351562 1031.429688 236.46875 1032.269531 235.628906 C 1033.109375 234.789062 1033.988281 233.992188 1034.910156 233.234375 C 1035.828125 232.480469 1036.78125 231.773438 1037.769531 231.113281 C 1038.757812 230.453125 1039.777344 229.839844 1040.824219 229.28125 C 1041.871094 228.71875 1042.945312 228.210938 1044.042969 227.757812 C 1045.140625 227.300781 1046.261719 226.902344 1047.398438 226.558594 C 1048.535156 226.210938 1049.6875 225.921875 1050.851562 225.691406 C 1052.019531 225.457031 1053.191406 225.285156 1054.375 225.167969 C 1055.558594 225.050781 1056.746094 224.992188 1057.933594 224.992188 C 1059.121094 224.992188 1060.308594 225.050781 1061.488281 225.167969 C 1062.671875 225.285156 1063.847656 225.457031 1065.011719 225.691406 C 1066.179688 225.921875 1067.332031 226.210938 1068.46875 226.558594 C 1069.605469 226.902344 1070.722656 227.300781 1071.820312 227.757812 C 1072.917969 228.210938 1073.992188 228.71875 1075.042969 229.28125 C 1076.089844 229.839844 1077.109375 230.453125 1078.097656 231.113281 C 1079.085938 231.773438 1080.039062 232.480469 1080.957031 233.234375 C 1081.875 233.992188 1082.753906 234.789062 1083.597656 235.628906 C 1084.4375 236.46875 1085.234375 237.351562 1085.988281 238.269531 C 1086.742188 239.1875 1087.449219 240.144531 1088.109375 241.132812 C 1088.769531 242.121094 1089.378906 243.140625 1089.941406 244.1875 C 1090.5 245.238281 1091.007812 246.3125 1091.464844 247.410156 C 1091.917969 248.507812 1092.316406 249.628906 1092.664062 250.765625 C 1093.007812 251.902344 1093.296875 253.054688 1093.527344 254.222656 C 1093.761719 255.390625 1093.933594 256.5625 1094.050781 257.746094 C 1094.167969 258.929688 1094.226562 260.117188 1094.226562 261.308594 Z M 1094.226562 261.308594 " fill-opacity="1" fill-rule="nonzero"/><path fill="#ffffff" d="M 1243.625 298.871094 L 1243.625 474.214844 C 1243.625 480.757812 1238.324219 486.0625 1231.78125 486.0625 L 991.796875 486.0625 C 985.253906 486.0625 979.953125 480.757812 979.953125 474.214844 L 979.953125 268.941406 C 979.953125 278.925781 988.046875 287.019531 998.03125 287.019531 L 1231.78125 287.019531 C 1238.324219 287.023438 1243.625 292.328125 1243.625 298.871094 Z M 1243.625 298.871094 " fill-opacity="1" fill-rule="nonzero"/><path fill="#46cbd6" d="M 1205.925781 465.039062 L 1017.652344 465.039062 C 1008.140625 465.039062 1000.429688 457.324219 1000.429688 447.808594 L 1000.429688 327.84375 C 1000.429688 318.328125 1008.140625 310.613281 1017.652344 310.613281 L 1205.925781 310.613281 C 1215.4375 310.613281 1223.148438 318.328125 1223.148438 327.84375 L 1223.148438 447.804688 C 1223.148438 457.324219 1215.4375 465.039062 1205.925781 465.039062 Z M 1205.925781 465.039062 " fill-opacity="1" fill-rule="nonzero"/><path fill="#ef5f36" d="M 1172.160156 461.878906 L 1206.152344 461.878906 C 1215.539062 461.878906 1223.148438 454.265625 1223.148438 444.871094 C 1223.148438 435.480469 1215.539062 427.867188 1206.152344 427.867188 L 1172.160156 427.867188 C 1162.769531 427.867188 1155.160156 435.480469 1155.160156 444.871094 C 1155.160156 454.265625 1162.769531 461.878906 1172.160156 461.878906 Z M 1172.160156 461.878906 " fill-opacity="1" fill-rule="nonzero"/><path fill="#ffffff" d="M 1032.9375 373.089844 L 1057.933594 416.402344 L 1082.929688 373.089844 L 1070.464844 373.089844 L 1070.335938 314.769531 L 1045.273438 314.769531 L 1045.402344 373.089844 Z M 1032.9375 373.089844 " fill-opacity="1" fill-rule="nonzero"/><path fill="#ffffff" d="M 1239.070312 173.738281 C 1239.070312 140.609375 1212.222656 113.742188 1179.109375 113.742188 C 1145.996094 113.742188 1119.148438 140.609375 1119.148438 173.738281 C 1119.148438 202.527344 1139.417969 226.570312 1166.453125 232.386719 L 1166.574219 325.398438 L 1154.113281 325.398438 L 1179.109375 368.710938 L 1204.101562 325.398438 L 1191.640625 325.398438 L 1191.515625 232.441406 C 1218.675781 226.722656 1239.070312 202.617188 1239.070312 173.738281 Z M 1239.070312 173.738281 " fill-opacity="1" fill-rule="nonzero"/><path fill="#f4c551" d="M 1179.109375 216.25 C 1155.648438 216.25 1136.625 197.214844 1136.625 173.742188 C 1136.625 150.265625 1155.648438 131.230469 1179.109375 131.230469 C 1202.570312 131.230469 1221.59375 150.265625 1221.59375 173.742188 C 1221.59375 197.214844 1202.570312 216.25 1179.109375 216.25 Z M 1179.109375 216.25 " fill-opacity="1" fill-rule="nonzero"/><g clip-path="url(#id1)"><path fill="#000000" d="M 1232.445312 283.085938 L 1232.445312 262.699219 C 1232.445312 253.988281 1225.363281 246.902344 1216.65625 246.902344 L 1195.476562 246.902344 L 1195.460938 235.558594 C 1222.800781 228.324219 1243.015625 203.347656 1243.015625 173.742188 C 1243.015625 138.484375 1214.34375 109.792969 1179.109375 109.792969 C 1143.871094 109.792969 1115.199219 138.484375 1115.199219 173.742188 C 1115.199219 203.261719 1135.289062 228.15625 1162.5 235.488281 L 1162.515625 246.902344 L 1111.1875 246.902344 C 1104.84375 223.425781 1083.367188 206.105469 1057.933594 206.105469 C 1032.492188 206.105469 1011.019531 223.425781 1004.671875 246.902344 L 998.03125 246.902344 C 992.140625 246.902344 986.609375 249.199219 982.464844 253.355469 C 978.296875 257.511719 976.007812 263.046875 976.007812 268.941406 L 976.007812 474.214844 C 976.007812 482.929688 983.085938 490.011719 991.796875 490.011719 L 1231.78125 490.011719 C 1240.488281 490.011719 1247.570312 482.929688 1247.570312 474.214844 L 1247.570312 298.867188 C 1247.570312 290.378906 1240.84375 283.433594 1232.445312 283.085938 Z M 1195.515625 272.890625 L 1224.550781 272.890625 L 1224.550781 283.070312 L 1195.523438 283.070312 Z M 1216.65625 254.800781 C 1221.007812 254.800781 1224.550781 258.347656 1224.550781 262.699219 L 1224.550781 264.992188 L 1195.5 264.992188 L 1195.492188 254.800781 Z M 1123.09375 173.742188 C 1123.09375 142.835938 1148.222656 117.691406 1179.113281 117.691406 C 1209.996094 117.691406 1235.121094 142.835938 1235.121094 173.742188 C 1235.121094 199.335938 1217.890625 220.96875 1194.425781 227.652344 C 1189.554688 229.042969 1184.417969 229.785156 1179.113281 229.785156 C 1173.808594 229.785156 1168.667969 229.042969 1163.796875 227.652344 C 1140.328125 220.96875 1123.09375 199.335938 1123.09375 173.742188 Z M 1170.402344 237.089844 C 1173.253906 237.480469 1176.160156 237.683594 1179.109375 237.683594 C 1181.976562 237.683594 1184.804688 237.496094 1187.574219 237.125 L 1187.589844 246.902344 L 1187.597656 254.800781 L 1187.613281 264.992188 L 1187.621094 272.890625 L 1187.636719 283.070312 L 1187.644531 290.96875 L 1187.699219 329.351562 L 1197.269531 329.351562 L 1179.113281 360.8125 L 1160.945312 329.351562 L 1170.53125 329.351562 L 1170.476562 290.96875 L 1170.46875 283.070312 L 1170.453125 272.890625 L 1170.445312 264.992188 L 1170.425781 254.800781 L 1170.417969 246.902344 Z M 1162.535156 254.800781 L 1162.542969 264.992188 L 1128.019531 264.992188 L 1128.019531 272.890625 L 1162.558594 272.890625 L 1162.566406 283.070312 L 1108.625 283.070312 C 1111.507812 276.386719 1113.101562 269.035156 1113.101562 261.308594 C 1113.101562 259.105469 1112.972656 256.933594 1112.714844 254.800781 Z M 1057.933594 214.003906 C 1078.980469 214.003906 1096.859375 227.84375 1102.964844 246.902344 C 1103.777344 249.453125 1104.386719 252.089844 1104.753906 254.800781 C 1105.054688 256.933594 1105.207031 259.105469 1105.207031 261.308594 C 1105.207031 269.152344 1103.289062 276.554688 1099.898438 283.070312 L 1067.109375 283.070312 C 1070.761719 280.054688 1072.878906 275.257812 1072.414062 270.09375 C 1071.710938 262.140625 1065.566406 259.273438 1059.039062 257.351562 C 1056.214844 256.523438 1054.421875 255.679688 1053.277344 254.800781 C 1051.546875 253.488281 1051.304688 252.140625 1051.265625 250.765625 C 1051.222656 249.335938 1051.585938 248 1052.273438 246.902344 C 1053.0625 245.605469 1054.289062 244.628906 1055.804688 244.175781 C 1056.214844 244.050781 1056.625 243.964844 1057.027344 243.917969 C 1058.683594 243.703125 1060.3125 244.207031 1061.597656 245.355469 C 1062.109375 245.804688 1062.542969 246.324219 1062.875 246.902344 C 1063.453125 247.867188 1063.761719 248.980469 1063.761719 250.125 L 1071.65625 250.125 C 1071.65625 249.027344 1071.527344 247.945312 1071.285156 246.902344 C 1070.621094 244.027344 1069.066406 241.40625 1066.816406 239.421875 C 1065.355469 238.140625 1063.671875 237.195312 1061.875 236.617188 L 1061.875 233.300781 L 1053.980469 233.300781 L 1053.980469 236.484375 C 1053.835938 236.523438 1053.695312 236.5625 1053.554688 236.601562 C 1048.683594 238.054688 1045.050781 242.035156 1043.820312 246.902344 C 1043.496094 248.207031 1043.335938 249.578125 1043.378906 250.984375 C 1043.417969 252.390625 1043.636719 253.664062 1044 254.800781 C 1046.210938 261.816406 1053.71875 264.027344 1056.8125 264.933594 C 1063.707031 266.957031 1064.351562 268.570312 1064.550781 270.796875 C 1064.875 274.421875 1062.617188 277.652344 1059.308594 278.292969 C 1059.132812 278.324219 1058.960938 278.355469 1058.792969 278.378906 C 1057.144531 278.574219 1055.527344 278.0625 1054.246094 276.925781 C 1052.882812 275.714844 1052.101562 273.96875 1052.109375 272.152344 L 1052.109375 271.777344 L 1044.214844 271.75 L 1044.214844 272.132812 C 1044.199219 276.214844 1045.949219 280.117188 1049.007812 282.832031 C 1049.101562 282.914062 1049.1875 282.992188 1049.28125 283.070312 L 1015.960938 283.070312 C 1012.574219 276.554688 1010.65625 269.152344 1010.65625 261.308594 C 1010.65625 259.105469 1010.804688 256.933594 1011.105469 254.800781 C 1011.476562 252.089844 1012.085938 249.453125 1012.898438 246.902344 C 1019 227.84375 1036.886719 214.003906 1057.933594 214.003906 Z M 988.046875 258.941406 C 990.707031 256.269531 994.25 254.800781 998.03125 254.800781 L 1003.148438 254.800781 C 1002.886719 256.933594 1002.761719 259.105469 1002.761719 261.308594 C 1002.761719 269.035156 1004.355469 276.390625 1007.238281 283.070312 L 998.03125 283.070312 C 990.242188 283.070312 983.902344 276.738281 983.902344 268.941406 C 983.902344 265.164062 985.371094 261.609375 988.046875 258.941406 Z M 1239.675781 474.214844 C 1239.675781 478.574219 1236.132812 482.113281 1231.78125 482.113281 L 991.796875 482.113281 C 987.445312 482.113281 983.902344 478.574219 983.902344 474.214844 L 983.902344 285.828125 C 983.941406 285.859375 983.972656 285.890625 984.011719 285.914062 C 984.035156 285.9375 984.050781 285.953125 984.074219 285.96875 C 984.335938 286.183594 984.59375 286.386719 984.863281 286.585938 C 985.132812 286.785156 985.402344 286.972656 985.667969 287.160156 C 985.710938 287.191406 985.757812 287.226562 985.804688 287.25 C 986.074219 287.429688 986.347656 287.605469 986.625 287.769531 C 986.917969 287.949219 987.210938 288.125 987.515625 288.292969 C 987.53125 288.300781 987.546875 288.316406 987.574219 288.316406 C 988.496094 288.820312 989.46875 289.261719 990.46875 289.625 C 990.808594 289.753906 991.148438 289.871094 991.496094 289.972656 C 991.804688 290.078125 992.121094 290.164062 992.441406 290.25 C 992.523438 290.273438 992.601562 290.289062 992.679688 290.304688 C 992.949219 290.375 993.226562 290.441406 993.5 290.496094 C 993.597656 290.519531 993.691406 290.542969 993.785156 290.550781 C 993.976562 290.597656 994.171875 290.628906 994.371094 290.660156 C 994.535156 290.691406 994.699219 290.714844 994.875 290.738281 C 995.054688 290.773438 995.246094 290.796875 995.433594 290.8125 C 995.59375 290.835938 995.75 290.851562 995.917969 290.867188 C 996.234375 290.898438 996.546875 290.921875 996.871094 290.9375 L 996.910156 290.9375 C 997.28125 290.960938 997.652344 290.96875 998.03125 290.96875 L 1162.582031 290.96875 L 1162.621094 321.449219 L 1147.273438 321.449219 L 1179.113281 376.609375 L 1210.941406 321.449219 L 1195.578125 321.449219 L 1195.539062 290.96875 L 1231.78125 290.96875 C 1236.132812 290.96875 1239.675781 294.515625 1239.675781 298.867188 Z M 1239.675781 474.214844 " fill-opacity="1" fill-rule="nonzero"/></g><path fill="#000000" d="M 1206.148438 423.914062 L 1172.15625 423.914062 C 1160.605469 423.914062 1151.210938 433.316406 1151.210938 444.871094 C 1151.210938 456.425781 1160.605469 465.828125 1172.15625 465.828125 L 1206.148438 465.828125 C 1217.699219 465.828125 1227.09375 456.425781 1227.09375 444.871094 C 1227.09375 433.316406 1217.699219 423.914062 1206.148438 423.914062 Z M 1206.148438 457.929688 L 1172.15625 457.929688 C 1164.964844 457.929688 1159.105469 452.074219 1159.105469 444.871094 C 1159.105469 437.675781 1164.964844 431.816406 1172.15625 431.816406 L 1206.148438 431.816406 C 1213.351562 431.816406 1219.199219 437.675781 1219.199219 444.871094 C 1219.199219 452.074219 1213.351562 457.929688 1206.148438 457.929688 Z M 1206.148438 457.929688 " fill-opacity="1" fill-rule="nonzero"/><path fill="#000000" d="M 1074.285156 314.035156 L 1074.277344 310.820312 L 1041.316406 310.820312 L 1041.324219 313.949219 L 1041.441406 369.144531 L 1026.097656 369.144531 L 1057.933594 424.304688 L 1089.761719 369.144531 L 1074.402344 369.144531 Z M 1057.933594 408.503906 L 1039.777344 377.042969 L 1049.351562 377.042969 L 1049.226562 318.71875 L 1066.398438 318.71875 L 1066.523438 377.042969 L 1076.089844 377.042969 Z M 1057.933594 408.503906 " fill-opacity="1" fill-rule="nonzero"/><path fill="#000000" d="M 1163.726562 185.96875 L 1163.714844 186.414062 C 1163.707031 191.003906 1165.667969 195.386719 1169.109375 198.433594 C 1170.875 200.007812 1172.953125 201.128906 1175.15625 201.761719 L 1175.15625 206.136719 L 1183.050781 206.136719 L 1183.050781 201.878906 C 1190.863281 200 1196.136719 192.480469 1195.390625 184.082031 C 1194.640625 175.671875 1188.78125 172.273438 1180.214844 169.753906 C 1172.363281 167.457031 1170.726562 164.855469 1170.632812 161.421875 C 1170.523438 157.472656 1172.851562 154.097656 1176.425781 153.039062 C 1176.933594 152.890625 1177.453125 152.78125 1177.964844 152.707031 C 1180.097656 152.441406 1182.1875 153.09375 1183.847656 154.558594 C 1185.589844 156.097656 1186.601562 158.316406 1186.601562 160.648438 L 1194.496094 160.648438 C 1194.496094 156.050781 1192.515625 151.664062 1189.066406 148.625 C 1187.304688 147.078125 1185.246094 145.964844 1183.050781 145.339844 L 1183.050781 140.964844 L 1175.15625 140.964844 L 1175.15625 145.203125 C 1174.824219 145.285156 1174.5 145.371094 1174.175781 145.464844 C 1167.230469 147.535156 1162.53125 154.1875 1162.738281 161.640625 C 1162.871094 166.5 1164.601562 173.402344 1177.988281 177.335938 C 1186.445312 179.816406 1187.273438 181.988281 1187.523438 184.785156 C 1187.9375 189.382812 1185.0625 193.464844 1180.839844 194.289062 C 1180.625 194.328125 1180.40625 194.359375 1180.199219 194.390625 C 1178.070312 194.652344 1175.992188 193.988281 1174.339844 192.527344 C 1172.605469 190.976562 1171.609375 188.757812 1171.609375 186.429688 L 1171.617188 185.984375 Z M 1163.726562 185.96875 " fill-opacity="1" fill-rule="nonzero"/><path fill="#000000" d="M 1041.8125 142.5 L 1048.570312 142.5 L 1048.570312 180.570312 L 1041.8125 180.570312 Z M 1041.8125 142.5 " fill-opacity="1" fill-rule="nonzero"/><path fill="#000000" d="M 1041.8125 187.328125 L 1048.570312 187.328125 L 1048.570312 194.089844 L 1041.8125 194.089844 Z M 1041.8125 187.328125 " fill-opacity="1" fill-rule="nonzero"/><path fill="#000000" d="M 1065.996094 156.023438 L 1072.753906 156.023438 L 1072.753906 194.089844 L 1065.996094 194.089844 Z M 1065.996094 156.023438 " fill-opacity="1" fill-rule="nonzero"/><path fill="#000000" d="M 1065.996094 142.5 L 1072.753906 142.5 L 1072.753906 149.261719 L 1065.996094 149.261719 Z M 1065.996094 142.5 " fill-opacity="1" fill-rule="nonzero"/></svg>