<svg xmlns="http://www.w3.org/2000/svg" xmlns:xlink="http://www.w3.org/1999/xlink" width="500" zoomAndPan="magnify" viewBox="0 0 375 374.999991" height="500" preserveAspectRatio="xMidYMid meet" version="1.0"><defs><g/><clipPath id="id1"><path d="M 131 75.414062 L 244 75.414062 L 244 205.164062 L 131 205.164062 Z M 131 75.414062 " clip-rule="nonzero"/></clipPath></defs><g clip-path="url(#id1)"><path fill="#0b5154" d="M 171.652344 164.1875 L 171.652344 148.703125 L 181.605469 142.980469 L 181.605469 194.359375 L 171.652344 188.636719 Z M 198.441406 191.636719 L 198.441406 131.660156 L 171.652344 116.265625 L 171.652344 141.449219 L 183.203125 134.808594 L 187.964844 132.054688 L 187.964844 204.980469 L 187.65625 205.164062 L 186.089844 204.246094 L 165.292969 192.28125 L 165.292969 152.375 L 156.136719 157.640625 L 156.136719 187.015625 L 132.851562 173.613281 L 131.253906 172.695312 L 131.253906 107.851562 L 132.851562 106.933594 L 159.453125 91.632812 L 186.058594 76.332031 L 187.625 75.414062 L 189.191406 76.332031 L 242.402344 106.933594 L 244 107.851562 L 244 172.695312 L 242.402344 173.613281 L 215.796875 188.914062 L 198.410156 198.921875 L 198.410156 191.636719 Z M 204.800781 187.964844 L 204.800781 150.660156 L 219.148438 158.925781 L 219.148438 179.734375 L 212.664062 183.464844 L 204.800781 187.996094 Z M 225.507812 176.0625 L 225.507812 155.28125 L 223.910156 154.363281 L 204.769531 143.347656 L 204.769531 128.015625 L 203.171875 127.097656 L 170.023438 108.035156 L 165.261719 105.28125 L 165.261719 145.0625 L 151.34375 153.046875 L 149.746094 153.96875 L 149.746094 176.03125 L 137.582031 169.023438 L 137.582031 111.429688 L 162.589844 97.046875 L 187.625 82.664062 L 212.664062 97.046875 L 237.671875 111.429688 L 237.671875 169.023438 L 225.507812 176.03125 Z M 225.507812 176.0625 " fill-opacity="1" fill-rule="evenodd"/></g><g fill="#000000" fill-opacity="1"><g transform="translate(46.748894, 258.796097)"><g><path d="M 10.625 -10.28125 C 11.882812 -9.832031 12.515625 -8.804688 12.515625 -7.203125 L 12.515625 -3.828125 C 12.515625 -1.273438 11.316406 0 8.921875 0 L 1.453125 0 L 1.453125 -18.796875 L 8.6875 -18.796875 C 11.082031 -18.796875 12.28125 -17.515625 12.28125 -14.953125 L 12.28125 -13.25 C 12.28125 -11.695312 11.726562 -10.707031 10.625 -10.28125 Z M 7.671875 -16.03125 L 5.515625 -16.03125 L 5.515625 -11.015625 L 7.671875 -11.015625 C 7.828125 -11.015625 7.957031 -11.070312 8.0625 -11.1875 C 8.164062 -11.300781 8.21875 -11.4375 8.21875 -11.59375 L 8.21875 -15.453125 C 8.21875 -15.609375 8.164062 -15.742188 8.0625 -15.859375 C 7.957031 -15.972656 7.828125 -16.03125 7.671875 -16.03125 Z M 8.453125 -3.375 L 8.453125 -7.578125 C 8.453125 -7.734375 8.398438 -7.867188 8.296875 -7.984375 C 8.191406 -8.097656 8.0625 -8.15625 7.90625 -8.15625 L 5.515625 -8.15625 L 5.515625 -2.78125 L 7.90625 -2.78125 C 8.0625 -2.78125 8.191406 -2.835938 8.296875 -2.953125 C 8.398438 -3.078125 8.453125 -3.21875 8.453125 -3.375 Z M 8.453125 -3.375 "/></g></g></g><g fill="#000000" fill-opacity="1"><g transform="translate(62.894822, 258.796097)"><g><path d="M 8.15625 -18.796875 L 12.234375 -18.796875 L 12.234375 -3.546875 C 12.234375 -0.984375 11.03125 0.296875 8.625 0.296875 L 5.03125 0.296875 C 2.625 0.296875 1.421875 -0.984375 1.421875 -3.546875 L 1.421875 -18.796875 L 5.484375 -18.796875 L 5.484375 -3.1875 C 5.484375 -3.039062 5.535156 -2.90625 5.640625 -2.78125 C 5.753906 -2.664062 5.890625 -2.609375 6.046875 -2.609375 L 7.609375 -2.609375 C 7.765625 -2.609375 7.894531 -2.664062 8 -2.78125 C 8.101562 -2.90625 8.15625 -3.039062 8.15625 -3.1875 Z M 8.15625 -18.796875 "/></g></g></g><g fill="#000000" fill-opacity="1"><g transform="translate(78.750355, 258.796097)"><g><path d="M 5.515625 -18.796875 L 5.515625 0 L 1.453125 0 L 1.453125 -18.796875 Z M 5.515625 -18.796875 "/></g></g></g><g fill="#000000" fill-opacity="1"><g transform="translate(88.130181, 258.796097)"><g><path d="M 5.515625 -3.421875 L 9.96875 -3.421875 L 9.96875 0 L 1.453125 0 L 1.453125 -18.796875 L 5.515625 -18.796875 Z M 5.515625 -3.421875 "/></g></g></g><g fill="#000000" fill-opacity="1"><g transform="translate(100.849496, 258.796097)"><g><path d="M 8.921875 -18.796875 C 11.316406 -18.796875 12.515625 -17.515625 12.515625 -14.953125 L 12.515625 -3.828125 C 12.515625 -1.273438 11.316406 0 8.921875 0 L 1.453125 0 L 1.453125 -18.796875 Z M 8.453125 -3.375 L 8.453125 -15.453125 C 8.453125 -15.609375 8.398438 -15.742188 8.296875 -15.859375 C 8.191406 -15.972656 8.0625 -16.03125 7.90625 -16.03125 L 5.515625 -16.03125 L 5.515625 -2.78125 L 7.90625 -2.78125 C 8.0625 -2.78125 8.191406 -2.835938 8.296875 -2.953125 C 8.398438 -3.078125 8.453125 -3.21875 8.453125 -3.375 Z M 8.453125 -3.375 "/></g></g></g><g fill="#000000" fill-opacity="1"><g transform="translate(117.227729, 258.796097)"><g><path d="M 5.515625 -18.796875 L 5.515625 0 L 1.453125 0 L 1.453125 -18.796875 Z M 5.515625 -18.796875 "/></g></g></g><g fill="#000000" fill-opacity="1"><g transform="translate(126.607552, 258.796097)"><g><path d="M 12.234375 0 L 8.15625 0 L 8.15625 -15.59375 C 8.15625 -15.75 8.101562 -15.882812 8 -16 C 7.894531 -16.113281 7.765625 -16.171875 7.609375 -16.171875 L 6.046875 -16.171875 C 5.890625 -16.171875 5.753906 -16.113281 5.640625 -16 C 5.535156 -15.882812 5.484375 -15.75 5.484375 -15.59375 L 5.484375 0 L 1.421875 0 L 1.421875 -15.25 C 1.421875 -17.800781 2.625 -19.078125 5.03125 -19.078125 L 8.625 -19.078125 C 11.03125 -19.078125 12.234375 -17.800781 12.234375 -15.25 Z M 12.234375 0 "/></g></g></g><g fill="#000000" fill-opacity="1"><g transform="translate(142.405004, 258.796097)"><g><path d="M 6.9375 -7.46875 L 6.9375 -10.453125 L 12.3125 -10.453125 L 12.3125 -3.546875 C 12.3125 -0.984375 11.113281 0.296875 8.71875 0.296875 L 5.046875 0.296875 C 2.648438 0.296875 1.453125 -0.984375 1.453125 -3.546875 L 1.453125 -15.25 C 1.453125 -17.800781 2.648438 -19.078125 5.046875 -19.078125 L 8.71875 -19.078125 C 11.113281 -19.078125 12.3125 -17.800781 12.3125 -15.25 L 12.3125 -13.484375 L 8.453125 -13.484375 L 8.453125 -15.75 C 8.453125 -15.894531 8.398438 -16.023438 8.296875 -16.140625 C 8.191406 -16.265625 8.0625 -16.328125 7.90625 -16.328125 L 6.078125 -16.328125 C 5.921875 -16.328125 5.785156 -16.265625 5.671875 -16.140625 C 5.566406 -16.023438 5.515625 -15.894531 5.515625 -15.75 L 5.515625 -3.078125 C 5.515625 -2.921875 5.566406 -2.785156 5.671875 -2.671875 C 5.785156 -2.554688 5.921875 -2.5 6.078125 -2.5 L 7.90625 -2.5 C 8.0625 -2.5 8.191406 -2.554688 8.296875 -2.671875 C 8.398438 -2.785156 8.453125 -2.921875 8.453125 -3.078125 L 8.453125 -7.46875 Z M 6.9375 -7.46875 "/></g></g></g><g fill="#000000" fill-opacity="1"><g transform="translate(157.795911, 258.796097)"><g/></g></g><g fill="#000000" fill-opacity="1"><g transform="translate(165.956109, 258.796097)"><g><path d="M 5.484375 0 L 1.421875 0 L 1.421875 -15.25 C 1.421875 -17.800781 2.625 -19.078125 5.03125 -19.078125 L 7.171875 -19.078125 C 8.585938 -19.078125 9.597656 -18.613281 10.203125 -17.6875 C 10.753906 -18.613281 11.757812 -19.078125 13.21875 -19.078125 L 15.359375 -19.078125 C 17.765625 -19.078125 18.96875 -17.800781 18.96875 -15.25 L 18.96875 0 L 14.90625 0 L 14.90625 -15.59375 C 14.90625 -15.75 14.847656 -15.882812 14.734375 -16 C 14.628906 -16.113281 14.5 -16.171875 14.34375 -16.171875 L 12.78125 -16.171875 C 12.625 -16.171875 12.492188 -16.113281 12.390625 -16 C 12.285156 -15.882812 12.234375 -15.75 12.234375 -15.59375 L 12.234375 0 L 8.15625 0 L 8.15625 -15.59375 C 8.15625 -15.75 8.101562 -15.882812 8 -16 C 7.894531 -16.113281 7.765625 -16.171875 7.609375 -16.171875 L 6.046875 -16.171875 C 5.890625 -16.171875 5.753906 -16.113281 5.640625 -16 C 5.535156 -15.882812 5.484375 -15.75 5.484375 -15.59375 Z M 5.484375 0 "/></g></g></g><g fill="#000000" fill-opacity="1"><g transform="translate(188.548701, 258.796097)"><g><path d="M 8.921875 -19.078125 C 11.316406 -19.078125 12.515625 -17.800781 12.515625 -15.25 L 12.515625 0 L 8.453125 0 L 8.453125 -6.296875 L 5.515625 -6.296875 L 5.515625 0 L 1.453125 0 L 1.453125 -15.25 C 1.453125 -17.800781 2.648438 -19.078125 5.046875 -19.078125 Z M 5.515625 -9.4375 L 8.453125 -9.4375 L 8.453125 -15.75 C 8.453125 -15.894531 8.398438 -16.023438 8.296875 -16.140625 C 8.191406 -16.265625 8.0625 -16.328125 7.90625 -16.328125 L 6.078125 -16.328125 C 5.921875 -16.328125 5.785156 -16.265625 5.671875 -16.140625 C 5.566406 -16.023438 5.515625 -15.894531 5.515625 -15.75 Z M 5.515625 -9.4375 "/></g></g></g><g fill="#000000" fill-opacity="1"><g transform="translate(204.926935, 258.796097)"><g><path d="M 12.234375 0 L 8.15625 0 L 8.15625 -15.59375 C 8.15625 -15.75 8.101562 -15.882812 8 -16 C 7.894531 -16.113281 7.765625 -16.171875 7.609375 -16.171875 L 6.046875 -16.171875 C 5.890625 -16.171875 5.753906 -16.113281 5.640625 -16 C 5.535156 -15.882812 5.484375 -15.75 5.484375 -15.59375 L 5.484375 0 L 1.421875 0 L 1.421875 -15.25 C 1.421875 -17.800781 2.625 -19.078125 5.03125 -19.078125 L 8.625 -19.078125 C 11.03125 -19.078125 12.234375 -17.800781 12.234375 -15.25 Z M 12.234375 0 "/></g></g></g><g fill="#000000" fill-opacity="1"><g transform="translate(220.724392, 258.796097)"><g><path d="M 8.921875 -19.078125 C 11.316406 -19.078125 12.515625 -17.800781 12.515625 -15.25 L 12.515625 0 L 8.453125 0 L 8.453125 -6.296875 L 5.515625 -6.296875 L 5.515625 0 L 1.453125 0 L 1.453125 -15.25 C 1.453125 -17.800781 2.648438 -19.078125 5.046875 -19.078125 Z M 5.515625 -9.4375 L 8.453125 -9.4375 L 8.453125 -15.75 C 8.453125 -15.894531 8.398438 -16.023438 8.296875 -16.140625 C 8.191406 -16.265625 8.0625 -16.328125 7.90625 -16.328125 L 6.078125 -16.328125 C 5.921875 -16.328125 5.785156 -16.265625 5.671875 -16.140625 C 5.566406 -16.023438 5.515625 -15.894531 5.515625 -15.75 Z M 5.515625 -9.4375 "/></g></g></g><g fill="#000000" fill-opacity="1"><g transform="translate(237.102626, 258.796097)"><g><path d="M 6.9375 -7.46875 L 6.9375 -10.453125 L 12.3125 -10.453125 L 12.3125 -3.546875 C 12.3125 -0.984375 11.113281 0.296875 8.71875 0.296875 L 5.046875 0.296875 C 2.648438 0.296875 1.453125 -0.984375 1.453125 -3.546875 L 1.453125 -15.25 C 1.453125 -17.800781 2.648438 -19.078125 5.046875 -19.078125 L 8.71875 -19.078125 C 11.113281 -19.078125 12.3125 -17.800781 12.3125 -15.25 L 12.3125 -13.484375 L 8.453125 -13.484375 L 8.453125 -15.75 C 8.453125 -15.894531 8.398438 -16.023438 8.296875 -16.140625 C 8.191406 -16.265625 8.0625 -16.328125 7.90625 -16.328125 L 6.078125 -16.328125 C 5.921875 -16.328125 5.785156 -16.265625 5.671875 -16.140625 C 5.566406 -16.023438 5.515625 -15.894531 5.515625 -15.75 L 5.515625 -3.078125 C 5.515625 -2.921875 5.566406 -2.785156 5.671875 -2.671875 C 5.785156 -2.554688 5.921875 -2.5 6.078125 -2.5 L 7.90625 -2.5 C 8.0625 -2.5 8.191406 -2.554688 8.296875 -2.671875 C 8.398438 -2.785156 8.453125 -2.921875 8.453125 -3.078125 L 8.453125 -7.46875 Z M 6.9375 -7.46875 "/></g></g></g><g fill="#000000" fill-opacity="1"><g transform="translate(252.493532, 258.796097)"><g><path d="M 5.515625 -3.375 L 10.015625 -3.375 L 10.015625 0 L 1.453125 0 L 1.453125 -18.796875 L 10.015625 -18.796875 L 10.015625 -15.484375 L 5.515625 -15.484375 L 5.515625 -11.0625 L 9.734375 -11.0625 L 9.734375 -7.875 L 5.515625 -7.875 Z M 5.515625 -3.375 "/></g></g></g><g fill="#000000" fill-opacity="1"><g transform="translate(265.706514, 258.796097)"><g><path d="M 5.484375 0 L 1.421875 0 L 1.421875 -15.25 C 1.421875 -17.800781 2.625 -19.078125 5.03125 -19.078125 L 7.171875 -19.078125 C 8.585938 -19.078125 9.597656 -18.613281 10.203125 -17.6875 C 10.753906 -18.613281 11.757812 -19.078125 13.21875 -19.078125 L 15.359375 -19.078125 C 17.765625 -19.078125 18.96875 -17.800781 18.96875 -15.25 L 18.96875 0 L 14.90625 0 L 14.90625 -15.59375 C 14.90625 -15.75 14.847656 -15.882812 14.734375 -16 C 14.628906 -16.113281 14.5 -16.171875 14.34375 -16.171875 L 12.78125 -16.171875 C 12.625 -16.171875 12.492188 -16.113281 12.390625 -16 C 12.285156 -15.882812 12.234375 -15.75 12.234375 -15.59375 L 12.234375 0 L 8.15625 0 L 8.15625 -15.59375 C 8.15625 -15.75 8.101562 -15.882812 8 -16 C 7.894531 -16.113281 7.765625 -16.171875 7.609375 -16.171875 L 6.046875 -16.171875 C 5.890625 -16.171875 5.753906 -16.113281 5.640625 -16 C 5.535156 -15.882812 5.484375 -15.75 5.484375 -15.59375 Z M 5.484375 0 "/></g></g></g><g fill="#000000" fill-opacity="1"><g transform="translate(288.299095, 258.796097)"><g><path d="M 5.515625 -3.375 L 10.015625 -3.375 L 10.015625 0 L 1.453125 0 L 1.453125 -18.796875 L 10.015625 -18.796875 L 10.015625 -15.484375 L 5.515625 -15.484375 L 5.515625 -11.0625 L 9.734375 -11.0625 L 9.734375 -7.875 L 5.515625 -7.875 Z M 5.515625 -3.375 "/></g></g></g><g fill="#000000" fill-opacity="1"><g transform="translate(301.512077, 258.796097)"><g><path d="M 12.234375 0 L 8.15625 0 L 8.15625 -15.59375 C 8.15625 -15.75 8.101562 -15.882812 8 -16 C 7.894531 -16.113281 7.765625 -16.171875 7.609375 -16.171875 L 6.046875 -16.171875 C 5.890625 -16.171875 5.753906 -16.113281 5.640625 -16 C 5.535156 -15.882812 5.484375 -15.75 5.484375 -15.59375 L 5.484375 0 L 1.421875 0 L 1.421875 -15.25 C 1.421875 -17.800781 2.625 -19.078125 5.03125 -19.078125 L 8.625 -19.078125 C 11.03125 -19.078125 12.234375 -17.800781 12.234375 -15.25 Z M 12.234375 0 "/></g></g></g><g fill="#000000" fill-opacity="1"><g transform="translate(317.309523, 258.796097)"><g><path d="M 0.375 -15.34375 L 0.375 -18.796875 L 10.546875 -18.796875 L 10.546875 -15.34375 L 7.5 -15.34375 L 7.5 0 L 3.421875 0 L 3.421875 -15.34375 Z M 0.375 -15.34375 "/></g></g></g><g fill="#000000" fill-opacity="1"><g transform="translate(139.373513, 293.034326)"><g><path d="M 6.648438 0.238281 C 9.679688 0.238281 12.324219 -1.375 12.304688 -4.539062 C 12.304688 -7.785156 9.917969 -9.140625 7.140625 -9.355469 C 5.207031 -9.527344 4.109375 -10.023438 4.109375 -10.992188 C 4.109375 -11.960938 4.882812 -12.539062 6.28125 -12.539062 C 7.550781 -12.539062 8.496094 -12.046875 9.207031 -10.90625 L 11.832031 -12.476562 C 10.820312 -14.304688 8.820312 -15.488281 6.496094 -15.488281 C 3.097656 -15.488281 0.988281 -13.464844 0.988281 -10.796875 C 0.988281 -7.765625 3.871094 -6.472656 6.257812 -6.214844 C 8.128906 -6 8.925781 -5.59375 8.925781 -4.367188 C 8.925781 -3.378906 8.238281 -2.710938 6.605469 -2.710938 C 5.398438 -2.710938 4.214844 -3.398438 3.3125 -4.625 L 0.601562 -2.925781 C 1.980469 -0.625 4.066406 0.238281 6.648438 0.238281 Z M 6.648438 0.238281 "/></g></g></g><g fill="#000000" fill-opacity="1"><g transform="translate(152.835209, 293.034326)"><g><path d="M 6.429688 0.214844 C 9.140625 0.214844 12.089844 -1.613281 12.089844 -5.742188 C 12.089844 -9.980469 9.183594 -11.703125 6.429688 -11.703125 C 3.828125 -11.703125 0.816406 -10.003906 0.816406 -5.742188 C 0.816406 -1.613281 3.785156 0.214844 6.429688 0.214844 Z M 6.429688 -2.515625 C 5.207031 -2.515625 4.023438 -3.65625 4.023438 -5.742188 C 4.023438 -7.851562 5.183594 -8.96875 6.429688 -8.96875 C 7.679688 -8.96875 8.863281 -7.828125 8.863281 -5.742188 C 8.863281 -3.636719 7.636719 -2.515625 6.429688 -2.515625 Z M 6.429688 -2.515625 "/></g></g></g><g fill="#000000" fill-opacity="1"><g transform="translate(166.167884, 293.034326)"><g><path d="M 2.152344 0 L 5.507812 0 L 5.507812 -8.777344 L 7.894531 -8.777344 L 7.894531 -11.488281 L 5.355469 -11.488281 L 5.355469 -11.808594 C 5.355469 -13.402344 5.980469 -13.851562 7.914062 -13.851562 L 7.914062 -16.304688 C 7.765625 -16.324219 7.164062 -16.367188 6.839844 -16.367188 C 3.3125 -16.367188 2.152344 -14.433594 2.152344 -11.765625 L 2.152344 -11.488281 L 0.472656 -11.488281 L 0.472656 -8.777344 L 2.152344 -8.777344 Z M 2.152344 0 "/></g></g></g><g fill="#000000" fill-opacity="1"><g transform="translate(175.264277, 293.034326)"><g><path d="M 1.980469 -3.292969 C 1.980469 -1.054688 3.421875 0.0664062 5.742188 0.0664062 C 6.410156 0.0664062 7.078125 0 7.355469 -0.0664062 L 7.355469 -2.644531 L 6.839844 -2.644531 C 5.808594 -2.644531 5.292969 -2.925781 5.292969 -4.300781 L 5.292969 -8.925781 L 7.398438 -8.925781 L 7.398438 -11.488281 L 5.292969 -11.488281 L 5.292969 -14.582031 L 2.601562 -14.582031 L 1.957031 -11.488281 L 0.453125 -11.488281 L 0.453125 -8.925781 L 1.980469 -8.925781 Z M 1.980469 -3.292969 "/></g></g></g><g fill="#000000" fill-opacity="1"><g transform="translate(183.844576, 293.034326)"><g><path d="M 3.871094 0 L 6.863281 0 L 8.734375 -5.679688 L 10.582031 0 L 13.722656 0 L 17.121094 -11.488281 L 13.636719 -11.488281 L 12.023438 -4.753906 L 9.9375 -11.488281 L 7.636719 -11.488281 L 5.59375 -4.753906 L 3.871094 -11.488281 L 0.410156 -11.488281 Z M 3.871094 0 "/></g></g></g><g fill="#000000" fill-opacity="1"><g transform="translate(201.779103, 293.034326)"><g><path d="M 4.558594 0.171875 C 6.5625 0.171875 7.527344 -0.945312 7.742188 -1.3125 L 7.980469 0 L 10.5625 0 L 10.5625 -6.734375 C 10.5625 -10.132812 8.710938 -11.703125 5.527344 -11.703125 C 3.808594 -11.703125 1.613281 -10.820312 0.925781 -8.925781 L 3.246094 -7.65625 C 3.742188 -8.605469 4.453125 -8.992188 5.507812 -8.992188 C 6.582031 -8.992188 7.398438 -8.625 7.398438 -7.121094 L 7.398438 -6.753906 C 7.078125 -6.820312 6.066406 -6.96875 5.355469 -6.96875 C 2.128906 -6.96875 0.753906 -5.164062 0.753906 -3.269531 C 0.753906 -1.332031 2.257812 0.171875 4.558594 0.171875 Z M 5.3125 -2.429688 C 4.496094 -2.429688 3.808594 -2.6875 3.808594 -3.527344 C 3.808594 -4.300781 4.34375 -4.773438 5.65625 -4.773438 C 6.367188 -4.773438 7.121094 -4.710938 7.378906 -4.6875 L 7.378906 -3.894531 C 7.269531 -3.203125 6.324219 -2.429688 5.3125 -2.429688 Z M 5.3125 -2.429688 "/></g></g></g><g fill="#000000" fill-opacity="1"><g transform="translate(213.84304, 293.034326)"><g><path d="M 1.355469 0 L 4.710938 0 L 4.710938 -5.828125 C 4.710938 -7.808594 5.570312 -8.582031 7.484375 -8.582031 C 7.828125 -8.582031 8.195312 -8.5625 8.605469 -8.519531 L 8.605469 -11.617188 C 8.28125 -11.679688 7.871094 -11.703125 7.464844 -11.703125 C 6.085938 -11.703125 4.625 -10.734375 4.171875 -9.59375 L 4 -11.488281 L 1.355469 -11.488281 Z M 1.355469 0 "/></g></g></g><g fill="#000000" fill-opacity="1"><g transform="translate(223.197474, 293.034326)"><g><path d="M 6.539062 0.214844 C 8.691406 0.214844 9.980469 -0.386719 11.464844 -2.152344 L 9.398438 -3.785156 C 8.734375 -3.054688 7.957031 -2.386719 6.691406 -2.386719 C 5.269531 -2.386719 4.066406 -3.203125 3.980469 -4.773438 L 11.59375 -4.773438 L 11.59375 -6.042969 C 11.59375 -9.9375 9.140625 -11.703125 6.257812 -11.703125 C 3.421875 -11.703125 0.859375 -9.613281 0.859375 -5.679688 C 0.859375 -1.65625 3.527344 0.214844 6.539062 0.214844 Z M 3.980469 -6.882812 C 4.066406 -8.324219 5.011719 -9.207031 6.238281 -9.207031 C 7.527344 -9.207031 8.476562 -8.410156 8.476562 -6.882812 Z M 3.980469 -6.882812 "/></g></g></g></svg>